<svg aria-hidden="true" style="position: absolute; width: 0; height: 0; overflow: hidden;" version="1.1" xmlns="http://www.w3.org/2000/svg" xmlns:xlink="http://www.w3.org/1999/xlink">
<defs>
<symbol id="icon-arrow-down" viewBox="0 0 48 32">
<path d="M40 0l-17.172 17.172-17.172-17.172-5.656 5.656 22.828 22.828 22.828-22.828-5.656-5.656z"></path>
</symbol>
<symbol id="icon-arrow-up" viewBox="0 0 48 32">
<path d="M0 22.828l5.656 5.656 17.172-17.172 17.172 17.172 5.656-5.656-22.828-22.828-22.828 22.828z"></path>
</symbol>
<symbol id="icon-caret-right" viewBox="0 0 32 32">
<path d="M12 25.333l10.667-9.333-10.667-9.333v18.667z"></path>
</symbol>
<symbol id="icon-exit" viewBox="0 0 32 32">
<path d="M22.835 22.364l-0.471 0.471c-0.26 0.26-0.682 0.26-0.943 0l-5.421-5.421-5.421 5.421c-0.26 0.26-0.682 0.26-0.943 0l-0.471-0.471c-0.26-0.26-0.26-0.682 0-0.943l5.421-5.421-5.421-5.421c-0.26-0.26-0.26-0.682 0-0.943l0.471-0.471c0.26-0.26 0.682-0.26 0.943 0l5.421 5.421 5.421-5.421c0.26-0.26 0.683-0.26 0.943 0l0.471 0.471c0.26 0.26 0.26 0.682 0 0.943l-5.421 5.421 5.421 5.421c0.26 0.26 0.26 0.683 0 0.943z"></path>
</symbol>
<symbol id="icon-Facebook" viewBox="0 0 32 32">
<path d="M29.333 16.405c0-7.409-5.969-13.415-13.333-13.415s-13.333 6.006-13.333 13.415c0 6.696 4.876 12.245 11.25 13.252v-9.374h-3.385v-3.878h3.385v-2.955c0-3.362 1.991-5.219 5.036-5.219 1.459 0 2.985 0.262 2.985 0.262v3.301h-1.681c-1.656 0-2.173 1.034-2.173 2.095v2.516h3.698l-0.591 3.878h-3.107v9.374c6.374-1.006 11.25-6.556 11.25-13.252z"></path>
</symbol>
<symbol id="icon-icon" viewBox="0 0 24 32">
<path d="M0.858 31.82c0.259 0.135 0.549 0.196 0.841 0.178s0.572-0.115 0.812-0.281l20.8-14.4c0.212-0.147 0.386-0.344 0.506-0.573s0.183-0.484 0.183-0.742-0.063-0.513-0.183-0.742c-0.12-0.229-0.294-0.426-0.506-0.573l-20.8-14.4c-0.24-0.167-0.521-0.266-0.813-0.284s-0.583 0.043-0.842 0.179c-0.259 0.136-0.476 0.34-0.627 0.59s-0.23 0.537-0.229 0.83v28.8c-0 0.292 0.080 0.579 0.231 0.828s0.368 0.454 0.627 0.589zM3.2 4.657l16.389 11.346-16.389 11.346v-22.691z"></path>
</symbol>
<symbol id="icon-Instagram" viewBox="0 0 32 32">
<path d="M15.998 6.161c3.206 0 3.585 0.014 4.846 0.071 1.172 0.052 1.804 0.248 2.226 0.412 0.558 0.216 0.961 0.478 1.378 0.895 0.422 0.422 0.679 0.82 0.9 1.378 0.164 0.422 0.361 1.059 0.412 2.226 0.056 1.266 0.071 1.645 0.071 4.847s-0.014 3.585-0.071 4.847c-0.052 1.172-0.248 1.804-0.412 2.227-0.216 0.558-0.478 0.961-0.895 1.377-0.422 0.422-0.82 0.679-1.378 0.9-0.422 0.164-1.060 0.361-2.226 0.412-1.266 0.056-1.645 0.071-4.847 0.071s-3.585-0.014-4.847-0.071c-1.172-0.052-1.804-0.248-2.226-0.412-0.558-0.216-0.961-0.478-1.378-0.895-0.422-0.422-0.679-0.82-0.9-1.378-0.164-0.422-0.361-1.060-0.412-2.226-0.056-1.266-0.071-1.645-0.071-4.847s0.014-3.585 0.071-4.847c0.052-1.172 0.248-1.804 0.412-2.226 0.216-0.558 0.478-0.961 0.895-1.378 0.422-0.422 0.82-0.679 1.378-0.9 0.422-0.164 1.059-0.361 2.226-0.412 1.261-0.056 1.641-0.071 4.847-0.071h0.001zM15.998 4.001c-3.258 0-3.665 0.014-4.945 0.071-1.275 0.056-2.151 0.262-2.91 0.558-0.792 0.309-1.462 0.717-2.127 1.387-0.67 0.666-1.078 1.336-1.387 2.123-0.295 0.764-0.502 1.636-0.558 2.91-0.056 1.285-0.071 1.692-0.071 4.949s0.014 3.665 0.071 4.945c0.056 1.275 0.262 2.151 0.558 2.91 0.31 0.792 0.717 1.462 1.387 2.127 0.665 0.665 1.336 1.078 2.123 1.383 0.764 0.295 1.636 0.502 2.91 0.558 1.279 0.056 1.687 0.071 4.945 0.071s3.666-0.014 4.945-0.071c1.275-0.056 2.151-0.262 2.91-0.558 0.787-0.305 1.458-0.717 2.123-1.383s1.078-1.336 1.383-2.123c0.295-0.764 0.502-1.635 0.558-2.91 0.056-1.279 0.071-1.687 0.071-4.945s-0.014-3.665-0.071-4.945c-0.056-1.275-0.262-2.151-0.558-2.91-0.295-0.797-0.703-1.467-1.373-2.133-0.665-0.665-1.336-1.078-2.123-1.383-0.764-0.295-1.635-0.502-2.91-0.558-1.284-0.061-1.692-0.075-4.949-0.075l-0.001 0.001z"></path>
<path d="M15.997 9.836c-3.402 0-6.163 2.76-6.163 6.163s2.76 6.163 6.163 6.163 6.163-2.76 6.163-6.163c0-3.402-2.76-6.163-6.163-6.163zM15.997 19.997c-2.208 0-3.998-1.79-3.998-3.998s1.79-3.998 3.998-3.998c2.208 0 3.998 1.79 3.998 3.998s-1.79 3.998-3.998 3.998z"></path>
<path d="M23.842 9.592c0 0.795-0.644 1.439-1.439 1.439s-1.439-0.644-1.439-1.439 0.644-1.439 1.439-1.439c0.795 0 1.439 0.644 1.439 1.439z"></path>
</symbol>
<symbol id="icon-logo-icon" viewBox="0 0 32 32">
<path d="M17.5 3.14c0.384-0.041 0.83 0.039 1.2 0.144 0.838 0.238 1.518 0.747 1.922 1.474 0.42 0.745 0.5 1.616 0.223 2.417-0.352 0.988-1.105 1.485-2.047 1.941l0.011 2.881c0.673 0.191 1.328 0.408 1.939 0.738 1.404 0.758 2.365 2.038 2.768 3.493 0.426 1.526 0.184 3.148-0.673 4.508-0.786 1.233-2.039 2.143-3.539 2.492-1.959 0.456-3.621-0.038-5.305-0.971-0.744 0.742-1.48 1.492-2.206 2.25 0.325 0.713 0.432 1.462 0.217 2.22-0.21 0.741-0.768 1.376-1.48 1.751-0.799 0.421-1.709 0.498-2.584 0.264-0.869-0.232-1.599-0.733-2.024-1.487-0.418-0.741-0.453-1.609-0.182-2.4 0.308-0.899 0.936-1.453 1.82-1.864 0.95-0.346 1.736-0.232 2.664 0.079 0.772-0.757 1.5-1.553 2.28-2.304-0.858-1.567-1.136-2.902-0.69-4.629-0.971-0.422-1.907-0.914-2.879-1.337-0.519 0.504-1.154 0.849-1.899 0.966-0.889 0.139-1.826-0.087-2.556-0.573-0.724-0.489-1.2-1.233-1.317-2.059-0.12-0.801 0.106-1.683 0.656-2.315 0.567-0.652 1.448-1.044 2.337-1.131 0.874-0.079 1.746 0.169 2.422 0.69 0.865 0.675 1.115 1.514 1.22 2.515 0.921 0.526 1.976 0.932 2.935 1.402 1.248-1.375 2.16-1.809 3.98-2.332l0.002-2.859c-0.326-0.121-0.651-0.269-0.935-0.464-0.718-0.495-1.189-1.24-1.306-2.065-0.108-0.821 0.141-1.648 0.691-2.297 0.601-0.702 1.404-1.022 2.336-1.137zM21.512 17.362c-0.185-1.967-2.040-3.425-4.152-3.265-2.131 0.162-3.713 1.908-3.527 3.892s2.071 3.448 4.2 3.262c2.11-0.185 3.663-1.922 3.478-3.889z"></path>
<path d="M27.617 12.586c0.090-0.004 0.178-0.005 0.267 0.007 0.28 0.038 0.556 0.164 0.71 0.393 0.164 0.243 0.186 0.567 0.208 0.849 0.111 1.394 0.029 2.844 0.028 4.243-0 1.142 0.136 2.691-0.092 3.792-0.072 0.346-0.318 0.511-0.612 0.698-0.112 0.013-0.23 0.027-0.343 0.021-0.253-0.013-0.492-0.118-0.656-0.298-0.162-0.178-0.157-0.535-0.171-0.759-0.103-1.603-0.016-3.258-0.014-4.866 0.001-0.914-0.134-2.663 0.072-3.479 0.074-0.292 0.356-0.445 0.603-0.6z"></path>
<path d="M25.036 14.825c0.304 0.052 0.572 0.158 0.749 0.404 0.273 0.379 0.28 4.091 0.144 4.621-0.075 0.29-0.344 0.431-0.599 0.57-0.292-0.016-0.676-0.040-0.871-0.276-0.29-0.351-0.266-4.296-0.101-4.791 0.096-0.287 0.413-0.409 0.678-0.528z"></path>
</symbol>
<symbol id="icon-logo" viewBox="0 0 110 32">
<path d="M16.216 0.013c0.434-0.050 0.936 0.047 1.354 0.174 0.945 0.288 1.714 0.905 2.169 1.785 0.474 0.902 0.564 1.957 0.252 2.927-0.397 1.196-1.247 1.797-2.31 2.35l0.012 3.489c0.759 0.231 1.498 0.495 2.187 0.894 1.584 0.919 2.669 2.467 3.123 4.23 0.48 1.848 0.206 3.812-0.76 5.459-0.887 1.493-2.3 2.597-3.993 3.019-2.211 0.552-4.086-0.047-5.986-1.176-0.84 0.898-1.67 1.807-2.489 2.725 0.366 0.864 0.487 1.77 0.244 2.687-0.237 0.897-0.866 1.666-1.67 2.121-0.901 0.51-1.928 0.603-2.916 0.321-0.981-0.281-1.805-0.889-2.284-1.802-0.472-0.897-0.511-1.949-0.206-2.907 0.348-1.089 1.057-1.759 2.053-2.257 1.072-0.419 1.958-0.281 3.005 0.096 0.872-0.917 1.693-1.88 2.574-2.789-0.968-1.898-1.281-3.515-0.778-5.606-1.096-0.511-2.153-1.108-3.249-1.62-0.586 0.61-1.301 1.028-2.142 1.169-1.003 0.169-2.061-0.105-2.885-0.694-0.817-0.592-1.354-1.493-1.486-2.493-0.135-0.97 0.12-2.038 0.741-2.803 0.64-0.789 1.634-1.265 2.637-1.37 0.986-0.096 1.97 0.205 2.734 0.836 0.976 0.818 1.258 1.834 1.376 3.045 1.039 0.637 2.229 1.129 3.311 1.698 1.409-1.665 2.439-2.191 4.492-2.824l0.002-3.463c-0.368-0.147-0.735-0.326-1.055-0.561-0.81-0.599-1.341-1.502-1.473-2.501-0.121-0.994 0.159-1.996 0.779-2.782 0.678-0.851 1.585-1.238 2.636-1.377zM20.744 17.238c-0.209-2.382-2.302-4.149-4.685-3.955-2.404 0.196-4.189 2.311-3.979 4.714 0.211 2.404 2.337 4.176 4.739 3.951 2.381-0.224 4.134-2.328 3.925-4.71z"></path>
<path d="M101.919 11.829c0.708 0.001 1.416 0.011 2.124 0.029l-0.004 3.742c0.545-0.424 1.14-0.739 1.831-0.843 0.933-0.141 1.884 0.1 2.636 0.669 0.908 0.687 1.385 1.844 1.524 2.949 0.175 1.401-0.154 2.749-1.020 3.866-0.573 0.554-1.263 0.942-2.057 1.072-1.165 0.191-2.087-0.216-2.997-0.894l-0.004 0.818-2.032-0.003-0.001-11.404zM105.56 16.733c-0.632 0.21-1.070 0.51-1.378 1.118-0.343 0.674-0.365 1.508-0.099 2.211 0.204 0.538 0.585 1.004 1.117 1.244 0.386 0.175 0.75 0.18 1.165 0.155 0.66-0.249 1.103-0.569 1.401-1.229 0.312-0.689 0.307-1.52 0.011-2.214-0.227-0.533-0.631-0.963-1.176-1.174-0.341-0.131-0.683-0.149-1.042-0.111z"></path>
<path d="M41.085 11.807c1.246 3.84 2.84 7.575 4.055 11.425l-2.296 0.003c-0.269-0.822-0.529-1.752-0.94-2.512-0.268-0.115-0.586-0.076-0.873-0.073-1.107 0.011-2.215 0.007-3.323-0.012-0.348 0.849-0.628 1.722-0.903 2.596l-2.339-0.002c1.221-3.833 2.678-7.617 3.996-11.42 0.872 0.019 1.749-0.002 2.622-0.005zM39.776 14.646c-0.483 1.375-0.934 2.768-1.464 4.125l1.681-0.001 1.307-0.015c-0.184-0.518-1.25-3.88-1.524-4.109z"></path>
<path d="M89.498 11.832l2.196 0.013c-0.030 2.647-0.007 5.298-0.007 7.945-0.001 1.093 0.11 2.287-0.012 3.365l-0.121 0.083h-2.058l-0.004-4.889c-1.645-0.046-3.303-0.005-4.949-0.003l0.001 4.894-2.209-0.004 0.009-11.401 2.201 0.005 0.001 4.662h4.957l-0.003-4.67z"></path>
<path d="M93.015 14.992c0.729 0.021 1.459 0.013 2.188 0.017-0.009 1.165-0.193 4.384 0.089 5.347 0.111 0.38 0.333 0.728 0.693 0.913 0.541 0.278 1.090 0.117 1.628-0.072 0.238-0.266 0.443-0.515 0.561-0.859 0.386-1.123 0.18-4.006 0.174-5.343 0.694 0.019 1.391 0.004 2.085 0-0.016 0.8-0.003 1.603-0.004 2.404l0.011 5.834c-0.683 0.010-1.365 0.005-2.047-0.015l-0.063-0.074c0.010-0.173 0.012-0.314-0.018-0.487-0.639 0.277-1.209 0.697-1.936 0.712-0.843 0.017-1.758-0.245-2.364-0.851-0.459-0.459-0.739-1.077-0.883-1.703-0.31-1.348-0.127-4.332-0.113-5.824z"></path>
<path d="M63.498 14.762c1.089-0.085 2.224-0.008 3.104 0.725 0.617 0.514 0.816 1.13 0.883 1.897l-1.968-0.002c-0.113-0.21-0.227-0.454-0.404-0.619-0.284-0.262-0.694-0.398-1.078-0.377-0.298 0.016-0.679 0.135-0.865 0.387-0.113 0.154-0.175 0.311-0.132 0.503 0.224 1.009 2.79 0.884 3.607 1.419 0.52 0.341 0.919 0.951 1.034 1.56 0.115 0.623-0.033 1.266-0.408 1.775-0.627 0.865-1.593 1.175-2.599 1.329-0.931 0.056-2.011-0.194-2.756-0.761-0.699-0.532-0.95-1.185-1.045-2.025 0.663 0.002 1.326-0.005 1.989-0.018 0.039 0.125 0.082 0.246 0.145 0.361 0.289 0.533 0.865 0.651 1.4 0.808 0.353-0.081 0.831-0.172 1.082-0.457 0.151-0.172 0.204-0.471 0.14-0.691-0.245-0.843-2.703-0.943-3.556-1.468-0.505-0.311-0.876-0.764-1.011-1.349-0.121-0.53-0.075-1.125 0.223-1.59 0.538-0.84 1.28-1.185 2.216-1.408z"></path>
<path d="M76.743 14.76c0.62-0.050 1.227-0.047 1.832 0.117 0.697 0.189 1.438 0.578 1.79 1.239 0.17 0.317 0.3 0.886 0.186 1.237-0.565 0.122-1.255 0.040-1.835 0.033-0.085-0.287-0.158-0.509-0.391-0.707-0.295-0.247-0.679-0.364-1.062-0.322-0.3 0.031-0.685 0.178-0.852 0.447-0.1 0.16-0.141 0.325-0.078 0.509 0.363 1.068 2.535 0.814 3.38 1.297 0.538 0.308 0.988 0.848 1.141 1.454 0.164 0.65 0.056 1.372-0.319 1.931-0.56 0.835-1.449 1.149-2.388 1.331-0.922 0.114-1.989-0.082-2.759-0.613-0.791-0.545-1.028-1.229-1.206-2.123l1.973-0.015c0.12 0.302 0.229 0.537 0.485 0.746 0.341 0.279 0.745 0.406 1.184 0.347 0.341-0.045 0.676-0.202 0.88-0.487 0.133-0.187 0.199-0.414 0.136-0.642-0.247-0.878-2.426-0.823-3.29-1.288-0.584-0.315-1.047-0.838-1.231-1.481-0.157-0.544-0.091-1.11 0.196-1.599 0.477-0.81 1.353-1.206 2.231-1.409z"></path>
<path d="M52.453 12.728c0.655 0.023 1.315 0.009 1.97 0.011-0.007 0.74 0.004 1.48 0.032 2.219l1.944 0.001-0.004 1.694-1.851-0.001c0.001 1.066-0.243 3.817 0.246 4.641 0.382 0.301 1.145 0.189 1.609 0.183l-0.007 1.404c0.004 0.145 0.004 0.218-0.070 0.344-0.259 0.124-0.524 0.152-0.81 0.154-0.752 0.007-1.791-0.129-2.331-0.693-1.086-1.131-0.739-4.457-0.734-6.035l-1.254 0.002 0.004-1.698 1.249 0.008 0.007-2.236z"></path>
<path d="M69.353 12.719l1.934 0.011c-0.015 0.741 0.016 1.485 0.030 2.226l1.975-0.004-0.003 1.702-1.859-0.002c0.023 1.015-0.226 3.85 0.234 4.617 0.494 0.295 1.113 0.216 1.669 0.215-0.007 0.489 0.003 0.979 0.005 1.469l-0.023 0.186c-0.191 0.202-0.486 0.194-0.747 0.2-0.794 0.019-1.891-0.107-2.467-0.71-1.075-1.125-0.74-4.405-0.731-5.978l-1.323 0.001c-0.017-0.563-0.010-1.129-0.015-1.692l1.318 0.007 0.004-2.249z"></path>
<path d="M27.633 11.453c0.102-0.005 0.2-0.007 0.301 0.008 0.316 0.046 0.628 0.198 0.802 0.476 0.185 0.294 0.21 0.687 0.235 1.028 0.125 1.688 0.032 3.444 0.032 5.138-0 1.383 0.153 3.26-0.104 4.592-0.081 0.419-0.358 0.619-0.691 0.846-0.127 0.015-0.259 0.033-0.387 0.026-0.285-0.016-0.556-0.143-0.74-0.361-0.183-0.216-0.177-0.648-0.193-0.919-0.116-1.942-0.018-3.946-0.016-5.893 0.001-1.107-0.151-3.226 0.082-4.213 0.083-0.353 0.402-0.539 0.68-0.727z"></path>
<path d="M50.055 14.929l0.278-0.003c0.329 0.368 0.166 1.535 0.155 2.018-0.696-0.007-1.354-0.035-1.899 0.471-1.023 0.949-0.678 4.425-0.688 5.82-0.548-0.005-1.617 0.195-2.035-0.154l-0.022-0.346c0.010-2.586-0.055-5.169-0.038-7.754 0.664 0.021 1.33 0.007 1.994 0.003l-0.023 1.142c0.123-0.177 0.246-0.366 0.389-0.527 0.503-0.568 1.186-0.619 1.891-0.669z"></path>
<path d="M57.608 14.963l2.086 0.001 0.005 8.275-2.11-0.003 0.019-8.273z"></path>
<path d="M24.719 14.164c0.342 0.063 0.645 0.192 0.845 0.489 0.308 0.459 0.316 4.955 0.162 5.596-0.084 0.351-0.388 0.522-0.676 0.691-0.329-0.020-0.763-0.049-0.983-0.335-0.328-0.425-0.3-5.203-0.114-5.802 0.108-0.348 0.466-0.495 0.765-0.64z"></path>
<path d="M58.514 11.554c0.62-0.073 1.185 0.36 1.276 0.978s-0.325 1.195-0.939 1.304c-0.414 0.073-0.835-0.084-1.099-0.411s-0.33-0.771-0.171-1.161c0.159-0.389 0.516-0.661 0.933-0.71z"></path>
</symbol>
<symbol id="icon-search" viewBox="0 0 32 32">
<path d="M13.333 24c2.367-0.001 4.665-0.793 6.529-2.251l5.861 5.861 1.885-1.885-5.861-5.861c1.459-1.864 2.251-4.163 2.252-6.531 0-5.881-4.785-10.667-10.667-10.667s-10.667 4.785-10.667 10.667c0 5.881 4.785 10.667 10.667 10.667zM13.333 5.333c4.412 0 8 3.588 8 8s-3.588 8-8 8c-4.412 0-8-3.588-8-8s3.588-8 8-8z"></path>
</symbol>
<symbol id="icon-star-purple" viewBox="0 0 34 32">
<path fill="#764191" style="fill: var(--color1, #764191)" d="M15.277 1.031c0.579-1.375 2.551-1.375 3.13 0l3.417 8.116c0.244 0.58 0.796 0.976 1.43 1.026l8.869 0.702c1.503 0.119 2.112 1.972 0.967 2.941l-6.757 5.718c-0.483 0.408-0.694 1.049-0.546 1.66l2.064 8.55c0.35 1.449-1.245 2.594-2.532 1.817l-7.593-4.582c-0.542-0.327-1.224-0.327-1.767 0l-7.593 4.582c-1.287 0.776-2.882-0.369-2.532-1.817l2.064-8.55c0.147-0.611-0.063-1.252-0.546-1.66l-6.757-5.718c-1.145-0.969-0.536-2.822 0.967-2.941l8.869-0.702c0.633-0.050 1.185-0.446 1.429-1.026l3.417-8.116z"></path>
</symbol>
<symbol id="icon-star-white" viewBox="0 0 34 32">
<path d="M15.277 1.031c0.579-1.375 2.551-1.375 3.13 0l3.417 8.116c0.244 0.58 0.796 0.976 1.43 1.026l8.869 0.702c1.503 0.119 2.112 1.972 0.967 2.941l-6.757 5.718c-0.483 0.408-0.694 1.049-0.546 1.66l2.064 8.55c0.35 1.449-1.245 2.594-2.532 1.817l-7.593-4.582c-0.542-0.327-1.224-0.327-1.767 0l-7.593 4.582c-1.287 0.776-2.882-0.369-2.532-1.817l2.064-8.55c0.147-0.611-0.063-1.252-0.546-1.66l-6.757-5.718c-1.145-0.969-0.536-2.822 0.967-2.941l8.869-0.702c0.633-0.050 1.185-0.446 1.429-1.026l3.417-8.116z"></path>
</symbol>
<symbol id="icon-Youtube" viewBox="0 0 32 32">
<path d="M28.791 9.604c-0.152-0.563-0.449-1.077-0.861-1.49s-0.925-0.711-1.489-0.864c-2.088-0.573-10.441-0.583-10.441-0.583s-8.352-0.009-10.441 0.539c-0.563 0.16-1.075 0.462-1.487 0.878s-0.711 0.929-0.867 1.493c-0.551 2.088-0.556 6.419-0.556 6.419s-0.005 4.352 0.541 6.419c0.307 1.143 1.207 2.045 2.351 2.353 2.109 0.573 10.44 0.583 10.44 0.583s8.353 0.009 10.441-0.537c0.563-0.153 1.077-0.45 1.49-0.862s0.712-0.925 0.866-1.488c0.552-2.087 0.556-6.416 0.556-6.416s0.027-4.353-0.543-6.441zM13.328 20.007l0.007-8 6.943 4.007-6.949 3.993z"></path>
</symbol>
<symbol id="icon-burger" viewBox="0 0 32 32">
<path d="M4.799 8.001c0-0.424 0.169-0.831 0.469-1.131s0.707-0.469 1.131-0.469h19.2c0.424 0 0.831 0.169 1.131 0.469s0.469 0.707 0.469 1.131-0.169 0.831-0.469 1.131c-0.3 0.3-0.707 0.469-1.131 0.469h-19.2c-0.424 0-0.831-0.169-1.131-0.469s-0.469-0.707-0.469-1.131z"></path>
<path d="M4.799 16.001c0-0.424 0.169-0.831 0.469-1.131s0.707-0.469 1.131-0.469h19.2c0.424 0 0.831 0.169 1.131 0.469s0.469 0.707 0.469 1.131c0 0.424-0.169 0.831-0.469 1.131s-0.707 0.469-1.131 0.469h-19.2c-0.424 0-0.831-0.169-1.131-0.469s-0.469-0.707-0.469-1.131z"></path>
<path d="M4.799 24.001c0-0.424 0.169-0.831 0.469-1.131s0.707-0.469 1.131-0.469h19.2c0.424 0 0.831 0.169 1.131 0.469s0.469 0.707 0.469 1.131c0 0.424-0.169 0.831-0.469 1.131s-0.707 0.469-1.131 0.469h-19.2c-0.424 0-0.831-0.169-1.131-0.469s-0.469-0.707-0.469-1.131z"></path>
</symbol>
<symbol id="icon-circle" viewBox="0 0 32 32">
<path d="M32 16c0 8.837-7.163 16-16 16s-16-7.163-16-16c0-8.837 7.163-16 16-16s16 7.163 16 16z"></path>
<path stroke-linejoin="miter" stroke-linecap="butt" stroke-miterlimit="4" stroke-width="1.3333" d="M31.333 16c0 8.468-6.865 15.333-15.333 15.333s-15.333-6.865-15.333-15.333c0-8.468 6.865-15.333 15.333-15.333s15.333 6.865 15.333 15.333z"></path>
</symbol>
<symbol id="icon-arrow-long" viewBox="0 0 32 32">
<path d="M30.661 15.33l-3.232-3.232-9.813 9.813v-21.911h-4.571v21.911l-9.813-9.813-3.232 3.232 15.33 15.33 15.33-15.33z"></path>
</symbol>
<symbol id="icon-footer" viewBox="0 0 96 32">
<path d="M19.334 0.017c0.517-0.059 1.116 0.056 1.614 0.208 1.127 0.343 2.043 1.078 2.587 2.127 0.565 1.076 0.673 2.334 0.3 3.49-0.473 1.426-1.488 2.144-2.755 2.803l0.014 4.16c0.905 0.276 1.786 0.589 2.608 1.065 1.889 1.095 3.182 2.942 3.724 5.043 0.573 2.204 0.247 4.546-0.905 6.51-1.057 1.78-2.743 3.095-4.761 3.599-2.636 0.659-4.872-0.054-7.138-1.401-1.001 1.071-1.991 2.153-2.967 3.248 0.437 1.030 0.582 2.111 0.292 3.206-0.283 1.070-1.033 1.987-1.992 2.529-1.075 0.608-2.299 0.718-3.477 0.381-1.169-0.335-2.152-1.058-2.724-2.147-0.562-1.070-0.61-2.324-0.245-3.466 0.415-1.298 1.259-2.098 2.447-2.691 1.279-0.5 2.336-0.335 3.584 0.114 1.039-1.094 2.017-2.243 3.067-3.327-1.154-2.263-1.528-4.19-0.928-6.684-1.306-0.61-2.566-1.32-3.873-1.93-0.698 0.727-1.553 1.226-2.555 1.394-1.195 0.201-2.456-0.125-3.439-0.827-0.974-0.705-1.614-1.782-1.772-2.974-0.161-1.156 0.143-2.429 0.883-3.341 0.763-0.941 1.948-1.509 3.144-1.635 1.175-0.114 2.348 0.244 3.258 0.996 1.164 0.975 1.501 2.188 1.642 3.632 1.239 0.759 2.658 1.345 3.948 2.023 1.68-1.986 2.908-2.612 5.356-3.367l0.001-4.129c-0.438-0.175-0.875-0.389-1.257-0.669-0.966-0.715-1.601-1.791-1.757-2.982-0.145-1.185 0.191-2.379 0.93-3.316 0.808-1.014 1.889-1.476 3.143-1.642zM24.732 20.554c-0.249-2.84-2.745-4.946-5.587-4.715-2.866 0.233-4.995 2.755-4.744 5.62 0.251 2.866 2.787 4.979 5.65 4.71 2.838-0.267 4.929-2.776 4.68-5.615z"></path>
<path d="M48.984 14.078c1.485 4.578 3.387 9.032 4.835 13.624l-2.738 0.002c-0.321-0.98-0.631-2.089-1.12-2.995-0.32-0.137-0.699-0.091-1.041-0.087-1.32 0.013-2.641 0.009-3.961-0.013-0.415 1.012-0.749 2.052-1.077 3.094l-2.788-0.002c1.456-4.57 3.192-9.082 4.764-13.617 1.040 0.023 2.086-0.002 3.126-0.006zM47.423 17.462c-0.577 1.639-1.114 3.3-1.745 4.918l2.005-0.001 1.558-0.017c-0.219-0.616-1.49-4.627-1.817-4.9z"></path>
<path d="M75.71 17.601c1.298-0.102 2.652-0.010 3.701 0.865 0.736 0.612 0.973 1.348 1.053 2.262l-2.347-0.003c-0.135-0.251-0.27-0.542-0.482-0.738-0.338-0.312-0.828-0.474-1.285-0.45-0.356 0.019-0.81 0.161-1.031 0.462-0.134 0.183-0.208 0.371-0.157 0.599 0.267 1.203 3.326 1.054 4.3 1.691 0.62 0.406 1.095 1.134 1.233 1.86 0.138 0.742-0.039 1.509-0.487 2.117-0.748 1.031-1.9 1.401-3.099 1.585-1.11 0.067-2.397-0.231-3.286-0.907-0.833-0.634-1.133-1.412-1.246-2.415 0.79 0.002 1.582-0.006 2.372-0.022 0.046 0.149 0.098 0.293 0.173 0.43 0.344 0.635 1.032 0.776 1.669 0.964 0.421-0.097 0.991-0.205 1.29-0.545 0.18-0.206 0.243-0.562 0.167-0.823-0.292-1.006-3.223-1.124-4.24-1.75-0.602-0.371-1.045-0.912-1.205-1.609-0.145-0.632-0.090-1.342 0.266-1.895 0.641-1.002 1.527-1.413 2.642-1.679z"></path>
<path d="M91.5 17.598c0.739-0.060 1.463-0.056 2.184 0.139 0.831 0.225 1.714 0.689 2.134 1.477 0.202 0.377 0.357 1.056 0.221 1.475-0.674 0.145-1.496 0.047-2.188 0.039-0.102-0.342-0.188-0.607-0.466-0.843-0.352-0.295-0.809-0.434-1.266-0.384-0.357 0.037-0.817 0.213-1.016 0.532-0.119 0.191-0.168 0.387-0.093 0.607 0.432 1.273 3.023 0.971 4.030 1.546 0.641 0.367 1.178 1.012 1.36 1.733 0.196 0.775 0.066 1.636-0.381 2.302-0.667 0.995-1.728 1.37-2.847 1.587-1.099 0.136-2.371-0.098-3.289-0.731-0.943-0.65-1.226-1.466-1.438-2.531l2.353-0.017c0.143 0.36 0.273 0.64 0.578 0.89 0.406 0.333 0.888 0.484 1.412 0.414 0.406-0.054 0.806-0.241 1.049-0.58 0.159-0.223 0.238-0.494 0.162-0.765-0.295-1.047-2.892-0.981-3.923-1.536-0.696-0.376-1.248-1-1.468-1.765-0.187-0.648-0.109-1.324 0.234-1.907 0.569-0.966 1.613-1.438 2.659-1.679z"></path>
<path d="M62.54 15.176c0.781 0.027 1.568 0.010 2.349 0.014-0.009 0.882 0.004 1.764 0.038 2.645l2.318 0.001-0.005 2.020-2.207-0.001c0.001 1.271-0.29 4.551 0.294 5.533 0.456 0.359 1.365 0.225 1.919 0.219l-0.008 1.674c0.005 0.173 0.004 0.26-0.084 0.41-0.308 0.148-0.625 0.181-0.965 0.184-0.897 0.008-2.135-0.154-2.78-0.826-1.295-1.348-0.881-5.314-0.875-7.196l-1.495 0.003 0.004-2.025 1.489 0.010 0.008-2.666z"></path>
<path d="M82.689 15.165l2.306 0.013c-0.017 0.883 0.019 1.771 0.036 2.655l2.355-0.005-0.003 2.030-2.217-0.002c0.027 1.21-0.269 4.59 0.279 5.505 0.589 0.352 1.327 0.258 1.989 0.256-0.008 0.583 0.003 1.168 0.006 1.752l-0.028 0.221c-0.228 0.241-0.579 0.231-0.891 0.239-0.947 0.023-2.255-0.127-2.942-0.846-1.282-1.342-0.883-5.253-0.871-7.128l-1.577 0.001c-0.020-0.672-0.012-1.346-0.017-2.018l1.571 0.008 0.004-2.681z"></path>
<path d="M32.946 13.655c0.121-0.006 0.239-0.008 0.359 0.010 0.377 0.055 0.748 0.237 0.956 0.568 0.22 0.351 0.25 0.819 0.281 1.225 0.149 2.013 0.038 4.107 0.038 6.126-0 1.649 0.182 3.886-0.124 5.475-0.096 0.499-0.428 0.738-0.824 1.008-0.151 0.018-0.309 0.039-0.461 0.031-0.34-0.019-0.663-0.171-0.883-0.431-0.218-0.257-0.211-0.773-0.231-1.095-0.138-2.315-0.021-4.705-0.019-7.027 0.001-1.32-0.18-3.846 0.097-5.023 0.099-0.421 0.479-0.642 0.811-0.866z"></path>
<path d="M59.682 17.8l0.331-0.004c0.393 0.439 0.198 1.83 0.185 2.406-0.83-0.009-1.614-0.042-2.264 0.561-1.22 1.131-0.809 5.276-0.821 6.94-0.654-0.006-1.927 0.233-2.427-0.183l-0.026-0.412c0.012-3.083-0.066-6.163-0.046-9.246 0.791 0.025 1.586 0.008 2.377 0.004l-0.028 1.361c0.147-0.211 0.293-0.437 0.463-0.629 0.6-0.677 1.414-0.738 2.255-0.798z"></path>
<path d="M68.686 17.841l2.487 0.001 0.006 9.866-2.516-0.004 0.023-9.864z"></path>
<path d="M29.473 16.888c0.408 0.075 0.77 0.229 1.008 0.583 0.367 0.547 0.377 5.908 0.193 6.673-0.101 0.418-0.462 0.622-0.806 0.823-0.393-0.024-0.909-0.058-1.172-0.399-0.391-0.506-0.358-6.203-0.136-6.918 0.129-0.415 0.556-0.591 0.913-0.762z"></path>
<path d="M69.765 13.776c0.739-0.087 1.413 0.43 1.521 1.166s-0.388 1.425-1.12 1.555c-0.494 0.088-0.996-0.1-1.311-0.49s-0.393-0.92-0.204-1.384c0.189-0.464 0.615-0.789 1.113-0.847z"></path>
</symbol>
</defs>
</svg>
