<svg width="80" height="80" viewBox="0 0 80 80" fill="none" xmlns="http://www.w3.org/2000/svg">
<path d="M43.7512 7.84931C44.712 7.74629 45.8256 7.94691 46.7512 8.20966C48.8454 8.80407 50.547 10.0771 51.5568 11.8942C52.606 13.7568 52.8074 15.934 52.1154 17.9362C51.2366 20.4057 49.3523 21.6475 46.9983 22.7888L47.0246 29.9909C48.7069 30.4688 50.3438 31.0098 51.8713 31.8347C55.3821 33.7309 57.7834 36.9288 58.7902 40.5671C59.8545 44.3822 59.2494 48.4362 57.1076 51.8366C55.1433 54.9188 52.0108 57.1951 48.261 58.0671C43.3626 59.2075 39.2084 57.9725 34.9983 55.6403C33.1372 57.4944 31.2984 59.3695 29.4836 61.2644C30.2949 63.0475 30.5636 64.9183 30.0256 66.8132C29.4997 68.6657 28.1065 70.2527 26.3244 71.1911C24.3276 72.2441 22.0527 72.436 19.8635 71.8522C17.6909 71.2729 15.8648 70.0188 14.8029 68.1345C13.7578 66.282 13.6694 64.1112 14.3469 62.1335C15.1178 59.8856 16.6881 58.5007 18.8957 57.4733C21.2716 56.6074 23.2356 56.8921 25.5549 57.6706C27.4859 55.7773 29.3042 53.7886 31.2551 51.9118C29.1109 47.9939 28.4157 44.6568 29.5305 40.3395C27.1032 39.2837 24.763 38.0544 22.3342 36.9968C21.0364 38.2556 19.4501 39.1187 17.5871 39.4108C15.3655 39.7593 13.0227 39.1945 11.1965 37.9792C9.38721 36.7579 8.19688 34.8965 7.90451 32.8327C7.60447 30.8313 8.16949 28.6252 9.54513 27.0456C10.9636 25.4167 13.1651 24.4345 15.3879 24.2175C17.5722 24.0192 19.7517 24.6398 21.4436 25.9421C23.6067 27.6302 24.2311 29.7282 24.4934 32.2292C26.7957 33.5444 29.4323 34.5588 31.8313 35.7331C34.9524 32.2952 37.2323 31.2106 41.7815 29.904L41.7854 22.7565C40.971 22.4529 40.1581 22.0834 39.4485 21.5974C37.6537 20.3603 36.4748 18.4967 36.1838 16.4343C35.9147 14.3824 36.5367 12.3146 37.9113 10.6921C39.4137 8.93612 41.4217 8.1366 43.7512 7.84931ZM53.7805 43.405C53.3177 38.4877 48.6813 34.8418 43.4016 35.2419C38.0746 35.6458 34.1183 40.0123 34.5852 44.9724C35.0521 49.9342 39.7639 53.5926 45.0852 53.1267C50.3591 52.6635 54.2432 48.3217 53.7805 43.405Z" fill="white"/>
<path d="M69.0435 31.4638C69.2687 31.4534 69.4873 31.4504 69.7114 31.4806C70.4117 31.5752 71.1018 31.8903 71.4875 32.4632C71.8966 33.071 71.9527 33.8804 72.0087 34.5845C72.2864 38.0692 72.0801 41.6943 72.0791 45.1913C72.0783 48.0472 72.418 51.9199 71.8489 54.6702C71.6698 55.5346 71.0545 55.948 70.3178 56.4157C70.0372 56.4474 69.7435 56.4836 69.4604 56.4685C68.8282 56.4353 68.2292 56.1728 67.8204 55.7232C67.4161 55.2782 67.4277 54.385 67.392 53.8268C67.135 49.8184 67.3523 45.6817 67.3562 41.6611C67.3584 39.3764 67.0213 35.0028 67.5369 32.9639C67.7213 32.2345 68.4269 31.8522 69.0435 31.4638Z" fill="white"/>
<path d="M62.5891 37.0625C63.3479 37.1928 64.0192 37.4585 64.4614 38.0725C65.1433 39.0198 65.1618 48.3006 64.8202 49.6252C64.6333 50.3493 63.9609 50.7023 63.3234 51.0508C62.5933 51.0101 61.6336 50.9498 61.1461 50.3599C60.4206 49.4834 60.4806 39.6197 60.8937 38.3827C61.1336 37.664 61.9267 37.3602 62.5891 37.0625Z" fill="white"/>
</svg>
